<svg width="45" height="61" viewBox="0 0 45 61" fill="none" xmlns="http://www.w3.org/2000/svg">
<path d="M44.4198 2.18092V18.3189C44.4198 19.5701 43.4042 20.5873 42.1549 20.5873H28.1647C27.9616 20.5873 27.7838 20.6432 27.6366 20.745C27.1795 21.0501 27.0424 21.7469 27.4944 22.1996L41.7893 36.5168C43.1756 37.9103 43.1756 40.1584 41.7893 41.5469L22.8682 60.4974V45.3766C22.8682 44.5324 21.8475 44.1102 21.2584 44.7104L6.25767 59.7345C5.79048 60.2024 5.15571 60.4669 4.49556 60.4669H2.22563C1.31665 60.4669 0.580322 59.7294 0.580322 58.819V42.681C0.580322 41.4299 1.59595 40.4127 2.84517 40.4127H16.8862C17.7139 40.4127 18.1252 39.4107 17.5413 38.8309L10.0104 31.2883L7.91313 29.1878L3.32759 24.5951L3.21587 24.4832C1.82954 23.0947 1.82954 20.8416 3.21587 19.4531L17.8764 4.7748L20.7506 1.8961L22.1319 0.512695V15.6742C22.1319 16.0251 22.3198 16.3048 22.5686 16.4625C22.9088 16.671 23.376 16.666 23.7112 16.3303L27.7788 12.2564L38.7424 1.26543C39.2096 0.797513 39.8495 0.533039 40.5096 0.533039H42.7745C42.9471 0.533039 43.1096 0.55847 43.2721 0.60933C43.9374 0.817858 44.4198 1.44344 44.4198 2.18092Z" fill="url(#paint0_linear_3946_1945)"/>
<path style="mix-blend-mode:multiply" opacity="0.5" d="M44.4198 9.82515V18.2731C44.0948 18.5477 43.6885 18.7359 43.2315 18.7918L28.8959 20.5872L27.6366 20.7449L18.7397 21.8536C13.9155 22.4589 10.244 26.4514 10.0053 31.2781L7.90806 29.1775L3.32251 24.5848C3.3479 23.8626 3.59165 23.1404 4.06899 22.525L17.8713 4.76963L20.7456 1.89093L22.1268 12.9683V15.669C22.1268 16.0199 22.3147 16.2997 22.5635 16.4573C22.726 17.2152 23.7213 17.4695 24.2139 16.8337L27.7737 12.2563L38.7424 1.26535C39.2096 0.797433 39.8495 0.532959 40.5096 0.532959H42.7745C42.9471 0.532959 43.1096 0.558389 43.2721 0.60925L44.4198 9.82515Z" fill="url(#paint1_linear_3946_1945)"/>
<path d="M44.4198 2.18083V18.3188C44.4198 19.57 43.4041 20.5872 42.1549 20.5872H17.7139C12.7576 20.5872 8.56819 24.2593 7.90803 29.1826L3.21077 24.478C1.82444 23.0895 1.82444 20.8364 3.21077 19.4479L22.1319 0.502441V15.6639C22.1319 16.4879 23.1323 16.9049 23.7112 16.32L38.7424 1.26535C39.2096 0.797432 39.8494 0.532958 40.5096 0.532958H42.7744C43.6834 0.532958 44.4198 1.27043 44.4198 2.18083Z" fill="url(#paint2_linear_3946_1945)"/>
<defs>
<linearGradient id="paint0_linear_3946_1945" x1="11.153" y1="19.4175" x2="42.8275" y2="50.2557" gradientUnits="userSpaceOnUse">
<stop stop-color="#372F09"/>
<stop offset="1" stop-color="#F3D129"/>
</linearGradient>
<linearGradient id="paint1_linear_3946_1945" x1="3.32251" y1="15.9081" x2="44.4198" y2="15.9081" gradientUnits="userSpaceOnUse">
<stop stop-color="#F3D129"/>
<stop offset="1" stop-color="#372F09"/>
</linearGradient>
<linearGradient id="paint2_linear_3946_1945" x1="40.6569" y1="3.75242" x2="10.927" y2="28.6081" gradientUnits="userSpaceOnUse">
<stop stop-color="#372F09"/>
<stop offset="1" stop-color="#F3D129"/>
</linearGradient>
</defs>
</svg>
