<?xml version="1.0" encoding="UTF-8" standalone="no"?>
<svg
   viewBox="0 0 50.000001 49.999999"
   version="1.1"
   id="svg23"
   sodipodi:docname="Scripture-Spot-Favicon.svg"
   width="50"
   height="50"
   inkscape:version="1.4 (86a8ad7, 2024-10-11)"
   xmlns:inkscape="http://www.inkscape.org/namespaces/inkscape"
   xmlns:sodipodi="http://sodipodi.sourceforge.net/DTD/sodipodi-0.dtd"
   xmlns="http://www.w3.org/2000/svg"
   xmlns:svg="http://www.w3.org/2000/svg">
  <sodipodi:namedview
     id="namedview23"
     pagecolor="#505050"
     bordercolor="#ffffff"
     borderopacity="1"
     inkscape:showpageshadow="0"
     inkscape:pageopacity="0"
     inkscape:pagecheckerboard="1"
     inkscape:deskcolor="#505050"
     showgrid="false"
     inkscape:zoom="1.9565218"
     inkscape:cx="146.17777"
     inkscape:cy="59.033332"
     inkscape:window-width="1920"
     inkscape:window-height="1009"
     inkscape:window-x="-8"
     inkscape:window-y="-8"
     inkscape:window-maximized="1"
     inkscape:current-layer="Layer_1-2" />
  <defs
     id="defs6">
    <style
       id="style1">
      .cls-1 {
        fill: url(#linear-gradient-3);
      }

      .cls-2 {
        fill: url(#linear-gradient);
      }

      .cls-3 {
        isolation: isolate;
      }

      .cls-4 {
        fill: url(#linear-gradient-2);
        mix-blend-mode: multiply;
        opacity: .5;
      }

      .cls-5 {
        fill: #fff;
      }
    </style>
    <linearGradient
       id="linear-gradient"
       x1="20.82"
       y1="37.189999"
       x2="83.099998"
       y2="97.919998"
       gradientUnits="userSpaceOnUse">
      <stop
         offset="0"
         stop-color="#372f09"
         id="stop1" />
      <stop
         offset="1"
         stop-color="#f3d129"
         id="stop2" />
    </linearGradient>
    <linearGradient
       id="linear-gradient-2"
       x1="5.4000001"
       y1="30.290001"
       x2="86.330002"
       y2="30.290001"
       gradientUnits="userSpaceOnUse">
      <stop
         offset="0"
         stop-color="#f3d129"
         id="stop3" />
      <stop
         offset="1"
         stop-color="#372f09"
         id="stop4" />
    </linearGradient>
    <linearGradient
       id="linear-gradient-3"
       x1="78.919998"
       y1="6.3899999"
       x2="20.450001"
       y2="55.349998"
       gradientUnits="userSpaceOnUse">
      <stop
         offset="0"
         stop-color="#372f09"
         id="stop5" />
      <stop
         offset="1"
         stop-color="#f3d129"
         id="stop6" />
    </linearGradient>
  </defs>
  <g
     class="cls-3"
     id="g23">
    <g
       id="Layer_2"
       data-name="Layer 2">
      <g
         id="Layer_1-2"
         data-name="Layer 1">
        <g
           id="g18" />
        <g
           id="g21"
           transform="matrix(0.56188786,0,0,0.4237218,0.5111111,0.5111111)">
          <path
             class="cls-2"
             d="m 86.33,3.3 v 31.73 c 0,2.46 -2,4.46 -4.46,4.46 H 54.32 c -0.4,0 -0.75,0.11 -1.04,0.31 -0.9,0.6 -1.17,1.97 -0.28,2.86 l 28.15,28.15 c 2.73,2.74 2.73,7.16 0,9.89 L 43.89,117.96 V 88.23 c 0,-1.66 -2.01,-2.49 -3.17,-1.31 l -29.54,29.54 c -0.92,0.92 -2.17,1.44 -3.47,1.44 H 3.24 C 1.45,117.9 0,116.45 0,114.66 V 82.93 c 0,-2.46 2,-4.46 4.46,-4.46 h 27.65 c 1.63,0 2.44,-1.97 1.29,-3.11 L 18.57,60.53 14.44,56.4 5.41,47.37 5.19,47.15 c -2.73,-2.73 -2.73,-7.16 0,-9.89 L 34.06,8.4 39.72,2.74 42.44,0.02 v 29.81 c 0,0.69 0.37,1.24 0.86,1.55 0.67,0.41 1.59,0.4 2.25,-0.26 L 53.56,23.11 75.15,1.5 c 0.92,-0.92 2.18,-1.44 3.48,-1.44 h 4.46 c 0.34,0 0.66,0.05 0.98,0.15 1.31,0.41 2.26,1.64 2.26,3.09 z"
             id="path19"
             style="fill:url(#linear-gradient)" />
          <path
             class="cls-4"
             d="m 86.33,18.33 v 16.61 c -0.64,0.54 -1.44,0.91 -2.34,1.02 l -28.23,3.53 -2.48,0.31 -17.52,2.18 c -9.5,1.19 -16.73,9.04 -17.2,18.53 L 14.43,56.38 5.4,47.35 C 5.45,45.93 5.93,44.51 6.87,43.3 L 34.05,8.39 39.71,2.73 42.43,24.51 v 5.31 c 0,0.69 0.37,1.24 0.86,1.55 0.32,1.49 2.28,1.99 3.25,0.74 l 7.01,-9 21.6,-21.61 c 0.92,-0.92 2.18,-1.44 3.48,-1.44 h 4.46 c 0.34,0 0.66,0.05 0.98,0.15 z"
             id="path20"
             style="fill:url(#linear-gradient-2)" />
          <path
             class="cls-1"
             d="m 86.33,3.3 v 31.73 c 0,2.46 -2,4.46 -4.46,4.46 H 33.74 c -9.76,0 -18.01,7.22 -19.31,16.9 v 0 c 0,0 -9.25,-9.25 -9.25,-9.25 -2.73,-2.73 -2.73,-7.16 0,-9.89 L 42.44,0 v 29.81 c 0,1.62 1.97,2.44 3.11,1.29 L 75.15,1.5 c 0.92,-0.92 2.18,-1.44 3.48,-1.44 h 4.46 c 1.79,0 3.24,1.45 3.24,3.24 z"
             id="path21"
             style="fill:url(#linear-gradient-3)" />
        </g>
      </g>
    </g>
  </g>
</svg>
