<?xml version="1.0" encoding="UTF-8"?>
<svg xmlns="http://www.w3.org/2000/svg" xmlns:xlink="http://www.w3.org/1999/xlink" viewBox="0 0 588.8 117.97">
  <defs>
    <style>
      .cls-1 {
        fill: url(#linear-gradient-3);
      }

      .cls-2 {
        fill: url(#linear-gradient);
      }

      .cls-3 {
        isolation: isolate;
      }

      .cls-4 {
        fill: url(#linear-gradient-2);
        mix-blend-mode: multiply;
        opacity: .5;
      }

      .cls-5 {
        fill: #fff;
      }
    </style>
    <linearGradient id="linear-gradient" x1="20.82" y1="37.19" x2="83.1" y2="97.92" gradientUnits="userSpaceOnUse">
      <stop offset="0" stop-color="#372f09"/>
      <stop offset="1" stop-color="#f3d129"/>
    </linearGradient>
    <linearGradient id="linear-gradient-2" x1="5.4" y1="30.29" x2="86.33" y2="30.29" gradientUnits="userSpaceOnUse">
      <stop offset="0" stop-color="#f3d129"/>
      <stop offset="1" stop-color="#372f09"/>
    </linearGradient>
    <linearGradient id="linear-gradient-3" x1="78.92" y1="6.39" x2="20.45" y2="55.35" gradientUnits="userSpaceOnUse">
      <stop offset="0" stop-color="#372f09"/>
      <stop offset="1" stop-color="#f3d129"/>
    </linearGradient>
  </defs>
  <g class="cls-3">
    <g id="Layer_2" data-name="Layer 2">
      <g id="Layer_1-2" data-name="Layer 1">
        <g>
          <g>
            <path class="cls-5" d="M125.75,95.43c-4.44,0-8.28-.78-11.51-2.35-3.23-1.56-5.77-3.75-7.61-6.55-1.84-2.8-2.91-6.07-3.22-9.8l9.99-.61c.3,2.32.97,4.29,2.01,5.9,1.03,1.62,2.42,2.84,4.16,3.67s3.85,1.25,6.32,1.25c2.12,0,3.92-.26,5.41-.79,1.49-.53,2.62-1.31,3.41-2.35.78-1.03,1.17-2.31,1.17-3.82,0-1.36-.33-2.59-.98-3.67-.66-1.08-1.92-2.07-3.78-2.95-1.87-.88-4.64-1.75-8.33-2.61-4.44-1.01-8-2.16-10.67-3.44-2.68-1.29-4.62-2.9-5.83-4.84-1.21-1.94-1.82-4.38-1.82-7.31,0-3.13.78-5.89,2.35-8.29,1.56-2.4,3.79-4.26,6.66-5.6,2.88-1.34,6.33-2.01,10.37-2.01,4.29,0,7.92.77,10.9,2.31,2.98,1.54,5.32,3.65,7.04,6.32,1.72,2.68,2.77,5.75,3.18,9.24l-9.92.45c-.25-1.97-.85-3.68-1.78-5.15-.93-1.46-2.2-2.61-3.79-3.44-1.59-.83-3.52-1.25-5.79-1.25-2.83,0-5.06.64-6.7,1.93-1.64,1.29-2.46,2.99-2.46,5.11,0,1.46.34,2.68,1.02,3.63.68.96,1.9,1.78,3.67,2.46,1.77.68,4.24,1.4,7.42,2.16,4.79,1.01,8.6,2.3,11.43,3.86,2.83,1.56,4.84,3.38,6.06,5.45,1.21,2.07,1.82,4.44,1.82,7.12,0,3.28-.83,6.12-2.5,8.52-1.67,2.4-4.01,4.24-7.04,5.53-3.03,1.29-6.59,1.93-10.67,1.93Z"/>
            <path class="cls-5" d="M170.89,95.13c-4.04,0-7.54-.87-10.52-2.61-2.98-1.74-5.29-4.2-6.93-7.38-1.64-3.18-2.46-6.89-2.46-11.13s.82-7.94,2.46-11.09c1.64-3.15,3.95-5.61,6.93-7.38,2.98-1.77,6.48-2.65,10.52-2.65,3.43,0,6.48.61,9.16,1.82,2.67,1.21,4.86,2.94,6.55,5.19,1.69,2.25,2.74,4.98,3.14,8.21l-9.99.53c-.4-2.57-1.4-4.53-2.99-5.87-1.59-1.34-3.55-2.01-5.87-2.01-3.13,0-5.55,1.17-7.27,3.52-1.72,2.35-2.57,5.59-2.57,9.73s.86,7.44,2.57,9.76c1.72,2.32,4.14,3.48,7.27,3.48,2.37,0,4.35-.68,5.94-2.04,1.59-1.36,2.56-3.48,2.91-6.36l9.99.45c-.4,3.23-1.44,6.03-3.1,8.4-1.67,2.37-3.84,4.2-6.51,5.49-2.68,1.29-5.75,1.93-9.24,1.93Z"/>
            <path class="cls-5" d="M195.51,94.22v-40.42h9.08l.38,11.2-.83-.15c.61-3.89,1.75-6.7,3.44-8.44,1.69-1.74,4-2.61,6.93-2.61h3.71v8.33h-3.79c-2.07,0-3.79.3-5.15.91-1.36.61-2.38,1.55-3.07,2.84-.68,1.29-1.02,2.96-1.02,5.03v23.31h-9.69Z"/>
            <path class="cls-5" d="M223.36,48.42v-8.63h10.07v8.63h-10.07ZM223.52,94.22v-40.42h9.69v40.42h-9.69Z"/>
            <path class="cls-5" d="M241.46,105.58v-51.78h9.31l.23,8.63-.98-.45c1.01-2.98,2.66-5.24,4.96-6.78,2.3-1.54,4.98-2.31,8.06-2.31,3.83,0,7.03.96,9.58,2.88,2.55,1.92,4.45,4.47,5.72,7.65,1.26,3.18,1.89,6.71,1.89,10.6s-.64,7.42-1.93,10.6c-1.29,3.18-3.21,5.73-5.75,7.65-2.55,1.92-5.74,2.88-9.58,2.88-2.02,0-3.9-.35-5.64-1.06-1.74-.71-3.23-1.72-4.47-3.03-1.24-1.31-2.11-2.85-2.61-4.62l.91-.76v19.91h-9.69ZM260.69,87.26c2.93,0,5.23-1.17,6.93-3.52,1.69-2.35,2.54-5.59,2.54-9.73s-.85-7.38-2.54-9.73c-1.69-2.35-4-3.52-6.93-3.52-1.97,0-3.66.49-5.07,1.48-1.41.98-2.51,2.46-3.29,4.43-.78,1.97-1.17,4.42-1.17,7.34s.38,5.37,1.14,7.34c.76,1.97,1.86,3.44,3.29,4.43,1.44.98,3.14,1.48,5.11,1.48Z"/>
            <path class="cls-5" d="M282.88,61.29v-7.49h26.72v7.49h-26.72ZM300.98,94.22c-4.04,0-7-.93-8.89-2.8-1.89-1.87-2.84-4.79-2.84-8.78v-38.3h9.69v37.39c0,1.87.4,3.17,1.21,3.9.81.73,2.07,1.1,3.78,1.1h5.68v7.49h-8.63Z"/>
            <path class="cls-5" d="M327.89,95.13c-4.09,0-7.33-1.35-9.73-4.05-2.4-2.7-3.6-6.45-3.6-11.24v-26.04h9.69v23.62c0,3.38.57,5.87,1.7,7.46,1.14,1.59,2.86,2.38,5.19,2.38,2.62,0,4.66-.87,6.09-2.61s2.16-4.28,2.16-7.61v-23.24h9.69v40.42h-8.86l-.23-11.13,1.21.38c-.61,3.84-2.04,6.74-4.31,8.7s-5.27,2.95-9.01,2.95Z"/>
            <path class="cls-5" d="M357.36,94.22v-40.42h9.08l.38,11.2-.83-.15c.61-3.89,1.75-6.7,3.44-8.44,1.69-1.74,4-2.61,6.93-2.61h3.71v8.33h-3.79c-2.07,0-3.79.3-5.15.91-1.36.61-2.38,1.55-3.07,2.84-.68,1.29-1.02,2.96-1.02,5.03v23.31h-9.69Z"/>
            <path class="cls-5" d="M402.73,95.13c-4.04,0-7.55-.87-10.52-2.61-2.98-1.74-5.27-4.2-6.89-7.38-1.62-3.18-2.42-6.89-2.42-11.13s.81-7.94,2.42-11.09c1.61-3.15,3.9-5.61,6.85-7.38,2.95-1.77,6.4-2.65,10.33-2.65s7.2.86,10.11,2.57c2.9,1.72,5.13,4.19,6.7,7.42,1.56,3.23,2.35,7.12,2.35,11.66v2.2h-28.69c.2,3.53,1.17,6.2,2.91,7.99,1.74,1.79,4.05,2.69,6.93,2.69,2.17,0,3.97-.49,5.41-1.48,1.44-.98,2.43-2.36,2.99-4.13l9.92.61c-1.11,3.94-3.29,7.04-6.55,9.31-3.26,2.27-7.2,3.41-11.85,3.41ZM392.97,70.22h18.7c-.2-3.28-1.14-5.72-2.8-7.3-1.67-1.59-3.78-2.38-6.36-2.38s-4.71.83-6.4,2.5c-1.69,1.67-2.74,4.06-3.14,7.19Z"/>
            <path class="cls-5" d="M449.17,95.43c-4.44,0-8.28-.78-11.51-2.35-3.23-1.56-5.77-3.75-7.61-6.55-1.84-2.8-2.91-6.07-3.22-9.8l9.99-.61c.3,2.32.97,4.29,2.01,5.9,1.03,1.62,2.42,2.84,4.16,3.67s3.85,1.25,6.32,1.25c2.12,0,3.92-.26,5.41-.79,1.49-.53,2.62-1.31,3.41-2.35.78-1.03,1.17-2.31,1.17-3.82,0-1.36-.33-2.59-.98-3.67-.66-1.08-1.92-2.07-3.79-2.95-1.87-.88-4.64-1.75-8.33-2.61-4.44-1.01-8-2.16-10.67-3.44-2.68-1.29-4.62-2.9-5.83-4.84-1.21-1.94-1.82-4.38-1.82-7.31,0-3.13.78-5.89,2.35-8.29,1.56-2.4,3.79-4.26,6.66-5.6,2.88-1.34,6.33-2.01,10.37-2.01,4.29,0,7.92.77,10.9,2.31,2.98,1.54,5.32,3.65,7.04,6.32,1.72,2.68,2.77,5.75,3.18,9.24l-9.92.45c-.25-1.97-.85-3.68-1.78-5.15-.93-1.46-2.2-2.61-3.79-3.44-1.59-.83-3.52-1.25-5.79-1.25-2.83,0-5.06.64-6.7,1.93-1.64,1.29-2.46,2.99-2.46,5.11,0,1.46.34,2.68,1.02,3.63.68.96,1.9,1.78,3.67,2.46,1.77.68,4.24,1.4,7.42,2.16,4.79,1.01,8.6,2.3,11.43,3.86,2.83,1.56,4.84,3.38,6.06,5.45,1.21,2.07,1.82,4.44,1.82,7.12,0,3.28-.83,6.12-2.5,8.52-1.67,2.4-4.01,4.24-7.04,5.53-3.03,1.29-6.59,1.93-10.67,1.93Z"/>
            <path class="cls-5" d="M476.37,105.58v-51.78h9.31l.23,8.63-.98-.45c1.01-2.98,2.66-5.24,4.96-6.78,2.3-1.54,4.98-2.31,8.06-2.31,3.83,0,7.03.96,9.58,2.88,2.55,1.92,4.45,4.47,5.72,7.65,1.26,3.18,1.89,6.71,1.89,10.6s-.64,7.42-1.93,10.6c-1.29,3.18-3.21,5.73-5.75,7.65-2.55,1.92-5.74,2.88-9.58,2.88-2.02,0-3.9-.35-5.64-1.06-1.74-.71-3.23-1.72-4.47-3.03-1.24-1.31-2.11-2.85-2.61-4.62l.91-.76v19.91h-9.69ZM495.6,87.26c2.93,0,5.23-1.17,6.93-3.52,1.69-2.35,2.54-5.59,2.54-9.73s-.85-7.38-2.54-9.73c-1.69-2.35-4-3.52-6.93-3.52-1.97,0-3.66.49-5.07,1.48-1.41.98-2.51,2.46-3.29,4.43-.78,1.97-1.17,4.42-1.17,7.34s.38,5.37,1.14,7.34c.76,1.97,1.85,3.44,3.29,4.43s3.14,1.48,5.11,1.48Z"/>
            <path class="cls-5" d="M539.67,95.13c-3.99,0-7.48-.87-10.48-2.61-3-1.74-5.32-4.2-6.96-7.38-1.64-3.18-2.46-6.89-2.46-11.13s.82-8.01,2.46-11.17c1.64-3.15,3.96-5.6,6.96-7.34,3-1.74,6.5-2.61,10.48-2.61s7.47.87,10.45,2.61c2.98,1.74,5.29,4.19,6.93,7.34,1.64,3.15,2.46,6.88,2.46,11.17s-.82,7.95-2.46,11.13c-1.64,3.18-3.95,5.64-6.93,7.38-2.98,1.74-6.46,2.61-10.45,2.61ZM539.67,87.26c3.13,0,5.54-1.16,7.23-3.48,1.69-2.32,2.54-5.58,2.54-9.76s-.85-7.38-2.54-9.73c-1.69-2.35-4.1-3.52-7.23-3.52s-5.55,1.17-7.27,3.52c-1.72,2.35-2.57,5.59-2.57,9.73s.86,7.44,2.57,9.76c1.71,2.32,4.14,3.48,7.27,3.48Z"/>
            <path class="cls-5" d="M562.07,61.29v-7.49h26.72v7.49h-26.72ZM580.17,94.22c-4.04,0-7-.93-8.89-2.8-1.89-1.87-2.84-4.79-2.84-8.78v-38.3h9.69v37.39c0,1.87.4,3.17,1.21,3.9.81.73,2.07,1.1,3.79,1.1h5.68v7.49h-8.63Z"/>
          </g>
          <g>
            <path class="cls-2" d="M86.33,3.3v31.73c0,2.46-2,4.46-4.46,4.46h-27.55c-.4,0-.75.11-1.04.31-.9.6-1.17,1.97-.28,2.86l28.15,28.15c2.73,2.74,2.73,7.16,0,9.89l-37.26,37.26v-29.73c0-1.66-2.01-2.49-3.17-1.31l-29.54,29.54c-.92.92-2.17,1.44-3.47,1.44H3.24c-1.79,0-3.24-1.45-3.24-3.24v-31.73c0-2.46,2-4.46,4.46-4.46h27.65c1.63,0,2.44-1.97,1.29-3.11l-14.83-14.83-4.13-4.13-9.03-9.03-.22-.22c-2.73-2.73-2.73-7.16,0-9.89l28.87-28.86,5.66-5.66,2.72-2.72v29.81c0,.69.37,1.24.86,1.55.67.41,1.59.4,2.25-.26l8.01-8.01L75.15,1.5c.92-.92,2.18-1.44,3.48-1.44h4.46c.34,0,.66.05.98.15,1.31.41,2.26,1.64,2.26,3.09Z"/>
            <path class="cls-4" d="M86.33,18.33v16.61c-.64.54-1.44.91-2.34,1.02l-28.23,3.53-2.48.31-17.52,2.18c-9.5,1.19-16.73,9.04-17.2,18.53l-4.13-4.13-9.03-9.03c.05-1.42.53-2.84,1.47-4.05L34.05,8.39l5.66-5.66,2.72,21.78v5.31c0,.69.37,1.24.86,1.55.32,1.49,2.28,1.99,3.25.74l7.01-9L75.15,1.5c.92-.92,2.18-1.44,3.48-1.44h4.46c.34,0,.66.05.98.15l2.26,18.12Z"/>
            <path class="cls-1" d="M86.33,3.3v31.73c0,2.46-2,4.46-4.46,4.46h-48.13c-9.76,0-18.01,7.22-19.31,16.9h0s-9.25-9.25-9.25-9.25c-2.73-2.73-2.73-7.16,0-9.89L42.44,0v29.81c0,1.62,1.97,2.44,3.11,1.29L75.15,1.5c.92-.92,2.18-1.44,3.48-1.44h4.46c1.79,0,3.24,1.45,3.24,3.24Z"/>
          </g>
        </g>
      </g>
    </g>
  </g>
</svg>